<svg width="26" height="26" viewBox="0 0 26 26" fill="none" xmlns="http://www.w3.org/2000/svg">
<path d="M13 0C10.9 0 9.643 0.32 8.844 0.719C8.444 0.919 8.16 1.129 7.969 1.344C7.83785 1.50376 7.73227 1.68289 7.656 1.875C7.62464 1.95531 7.6038 2.03934 7.594 2.125L7.062 8.969C7.055 9.011 7.069 9.079 7.062 9.125L7 9.813C6.99418 9.8752 6.99418 9.9378 7 10C7 13.3 9.7 16 13 16C16.3 16 19 13.3 19 10V9.844C19.0002 9.83367 19.0002 9.82333 19 9.813L18.406 2.125C18.3962 2.03934 18.3754 1.95531 18.344 1.875C18.344 1.875 18.223 1.559 18.031 1.344C17.84 1.128 17.556 0.918 17.156 0.719C16.357 0.319 15.1 0 13 0ZM13 16C6.4 16 1 19.106 1 21.906V26H25V21.906C25 19.246 20.118 16.316 13.969 16.031C13.6464 16.0097 13.3233 15.9994 13 16ZM13 2C14.9 2 15.849 2.3 16.25 2.5C16.384 2.567 16.4 2.593 16.438 2.625L16.844 7.75C15.924 7.806 14.67 8 13 8C11.33 8 10.077 7.806 9.156 7.75L9.562 2.625C9.599 2.593 9.616 2.567 9.75 2.5C10.151 2.3 11.1 2 13 2ZM12.187 3V4.188H11V5.813H12.188V7H13.812V5.812H15V4.188H13.812V3H12.187ZM10 18.25L12.563 24H3V21.906C3 21.161 5.55 18.979 10 18.25ZM16 18.25C20.45 18.98 23 21.161 23 21.906V24H13.437L16 18.25Z" fill="black"/>
</svg>
