<svg width="186" height="52" viewBox="0 0 186 52" fill="none" xmlns="http://www.w3.org/2000/svg">
<path d="M52.7759 36V19.2H57.9359C60.8959 19.2 63.0719 19.952 64.4639 21.456C65.8719 22.96 66.5759 25.024 66.5759 27.648C66.5759 30.224 65.8719 32.264 64.4639 33.768C63.0719 35.256 60.8959 36 57.9359 36H52.7759ZM54.7919 34.32H57.8879C59.5199 34.32 60.8159 34.056 61.7759 33.528C62.7519 32.984 63.4479 32.216 63.8639 31.224C64.2799 30.216 64.4879 29.024 64.4879 27.648C64.4879 26.24 64.2799 25.032 63.8639 24.024C63.4479 23.016 62.7519 22.24 61.7759 21.696C60.8159 21.152 59.5199 20.88 57.8879 20.88H54.7919V34.32Z" fill="#212529"/>
<path d="M75.2708 36.288C74.1508 36.288 73.1428 36.032 72.2468 35.52C71.3508 35.008 70.6388 34.288 70.1108 33.36C69.5988 32.416 69.3428 31.312 69.3428 30.048C69.3428 28.784 69.6068 27.688 70.1348 26.76C70.6628 25.816 71.3748 25.088 72.2708 24.576C73.1828 24.064 74.1988 23.808 75.3188 23.808C76.4388 23.808 77.4468 24.064 78.3428 24.576C79.2388 25.088 79.9428 25.816 80.4548 26.76C80.9828 27.688 81.2468 28.784 81.2468 30.048C81.2468 31.312 80.9828 32.416 80.4548 33.36C79.9268 34.288 79.2068 35.008 78.2948 35.52C77.3988 36.032 76.3908 36.288 75.2708 36.288ZM75.2708 34.56C75.9588 34.56 76.5988 34.392 77.1908 34.056C77.7828 33.72 78.2628 33.216 78.6308 32.544C78.9988 31.872 79.1828 31.04 79.1828 30.048C79.1828 29.056 78.9988 28.224 78.6308 27.552C78.2788 26.88 77.8068 26.376 77.2148 26.04C76.6228 25.704 75.9908 25.536 75.3188 25.536C74.6308 25.536 73.9908 25.704 73.3988 26.04C72.8068 26.376 72.3268 26.88 71.9588 27.552C71.5908 28.224 71.4068 29.056 71.4068 30.048C71.4068 31.04 71.5908 31.872 71.9588 32.544C72.3268 33.216 72.7988 33.72 73.3748 34.056C73.9668 34.392 74.5988 34.56 75.2708 34.56Z" fill="#212529"/>
<path d="M90.0019 36.288C88.8659 36.288 87.8419 36.032 86.9299 35.52C86.0339 34.992 85.3219 34.264 84.7939 33.336C84.2819 32.392 84.0259 31.296 84.0259 30.048C84.0259 28.8 84.2819 27.712 84.7939 26.784C85.3219 25.84 86.0339 25.112 86.9299 24.6C87.8419 24.072 88.8659 23.808 90.0019 23.808C91.4099 23.808 92.5939 24.176 93.5539 24.912C94.5299 25.648 95.1459 26.632 95.4019 27.864H93.3379C93.1779 27.128 92.7859 26.56 92.1619 26.16C91.5379 25.744 90.8099 25.536 89.9779 25.536C89.3059 25.536 88.6739 25.704 88.0819 26.04C87.4899 26.376 87.0099 26.88 86.6419 27.552C86.2739 28.224 86.0899 29.056 86.0899 30.048C86.0899 31.04 86.2739 31.872 86.6419 32.544C87.0099 33.216 87.4899 33.728 88.0819 34.08C88.6739 34.416 89.3059 34.584 89.9779 34.584C90.8099 34.584 91.5379 34.384 92.1619 33.984C92.7859 33.568 93.1779 32.984 93.3379 32.232H95.4019C95.1619 33.432 94.5539 34.408 93.5779 35.16C92.6019 35.912 91.4099 36.288 90.0019 36.288Z" fill="#212529"/>
<path d="M103.073 36C101.985 36 101.129 35.736 100.505 35.208C99.8813 34.68 99.5693 33.728 99.5693 32.352V25.8H97.5053V24.096H99.5693L99.8333 21.24H101.585V24.096H105.089V25.8H101.585V32.352C101.585 33.104 101.737 33.616 102.041 33.888C102.345 34.144 102.881 34.272 103.649 34.272H104.897V36H103.073Z" fill="#212529"/>
<path d="M113.226 36.288C112.106 36.288 111.098 36.032 110.202 35.52C109.306 35.008 108.594 34.288 108.066 33.36C107.554 32.416 107.298 31.312 107.298 30.048C107.298 28.784 107.562 27.688 108.09 26.76C108.618 25.816 109.33 25.088 110.226 24.576C111.138 24.064 112.154 23.808 113.274 23.808C114.394 23.808 115.402 24.064 116.298 24.576C117.194 25.088 117.898 25.816 118.41 26.76C118.938 27.688 119.202 28.784 119.202 30.048C119.202 31.312 118.938 32.416 118.41 33.36C117.882 34.288 117.162 35.008 116.25 35.52C115.354 36.032 114.346 36.288 113.226 36.288ZM113.226 34.56C113.914 34.56 114.554 34.392 115.146 34.056C115.738 33.72 116.218 33.216 116.586 32.544C116.954 31.872 117.138 31.04 117.138 30.048C117.138 29.056 116.954 28.224 116.586 27.552C116.234 26.88 115.762 26.376 115.17 26.04C114.578 25.704 113.946 25.536 113.274 25.536C112.586 25.536 111.946 25.704 111.354 26.04C110.762 26.376 110.282 26.88 109.914 27.552C109.546 28.224 109.362 29.056 109.362 30.048C109.362 31.04 109.546 31.872 109.914 32.544C110.282 33.216 110.754 33.72 111.33 34.056C111.922 34.392 112.554 34.56 113.226 34.56Z" fill="#212529"/>
<path d="M122.486 36V24.096H124.31L124.478 26.376C124.846 25.592 125.406 24.968 126.158 24.504C126.91 24.04 127.838 23.808 128.942 23.808V25.92H128.39C127.686 25.92 127.038 26.048 126.446 26.304C125.854 26.544 125.382 26.96 125.03 27.552C124.678 28.144 124.502 28.96 124.502 30V36H122.486Z" fill="#212529"/>
<path d="M139.268 36.288C137.572 36.288 136.116 35.928 134.9 35.208C133.684 34.472 132.748 33.456 132.092 32.16C131.436 30.848 131.108 29.336 131.108 27.624C131.108 25.912 131.436 24.4 132.092 23.088C132.748 21.776 133.684 20.752 134.9 20.016C136.116 19.28 137.572 18.912 139.268 18.912C141.284 18.912 142.932 19.416 144.212 20.424C145.508 21.416 146.316 22.816 146.636 24.624H143.252C143.044 23.712 142.596 23 141.908 22.488C141.236 21.96 140.34 21.696 139.22 21.696C137.668 21.696 136.452 22.224 135.572 23.28C134.692 24.336 134.252 25.784 134.252 27.624C134.252 29.464 134.692 30.912 135.572 31.968C136.452 33.008 137.668 33.528 139.22 33.528C140.34 33.528 141.236 33.288 141.908 32.808C142.596 32.312 143.044 31.632 143.252 30.768H146.636C146.316 32.496 145.508 33.848 144.212 34.824C142.932 35.8 141.284 36.288 139.268 36.288Z" fill="#00856F"/>
<path d="M153.868 36.288C152.844 36.288 152.004 36.128 151.348 35.808C150.692 35.472 150.204 35.032 149.884 34.488C149.564 33.944 149.404 33.344 149.404 32.688C149.404 31.584 149.836 30.688 150.7 30C151.564 29.312 152.86 28.968 154.588 28.968H157.612V28.68C157.612 27.864 157.38 27.264 156.916 26.88C156.452 26.496 155.876 26.304 155.188 26.304C154.564 26.304 154.02 26.456 153.556 26.76C153.092 27.048 152.804 27.48 152.692 28.056H149.692C149.772 27.192 150.06 26.44 150.556 25.8C151.068 25.16 151.724 24.672 152.524 24.336C153.324 23.984 154.22 23.808 155.212 23.808C156.908 23.808 158.244 24.232 159.22 25.08C160.196 25.928 160.684 27.128 160.684 28.68V36H158.068L157.78 34.08C157.428 34.72 156.932 35.248 156.292 35.664C155.668 36.08 154.86 36.288 153.868 36.288ZM154.564 33.888C155.444 33.888 156.124 33.6 156.604 33.024C157.1 32.448 157.412 31.736 157.54 30.888H154.924C154.108 30.888 153.524 31.04 153.172 31.344C152.82 31.632 152.644 31.992 152.644 32.424C152.644 32.888 152.82 33.248 153.172 33.504C153.524 33.76 153.988 33.888 154.564 33.888Z" fill="#00856F"/>
<path d="M164.095 36V24.096H166.831L167.119 26.328C167.551 25.56 168.135 24.952 168.871 24.504C169.623 24.04 170.503 23.808 171.511 23.808V27.048H170.647C169.975 27.048 169.375 27.152 168.847 27.36C168.319 27.568 167.903 27.928 167.599 28.44C167.311 28.952 167.167 29.664 167.167 30.576V36H164.095Z" fill="#00856F"/>
<path d="M179.664 36.288C178.464 36.288 177.4 36.032 176.472 35.52C175.544 35.008 174.816 34.288 174.288 33.36C173.76 32.432 173.496 31.36 173.496 30.144C173.496 28.912 173.752 27.816 174.264 26.856C174.792 25.896 175.512 25.152 176.424 24.624C177.352 24.08 178.44 23.808 179.688 23.808C180.856 23.808 181.888 24.064 182.784 24.576C183.68 25.088 184.376 25.792 184.872 26.688C185.384 27.568 185.64 28.552 185.64 29.64C185.64 29.816 185.632 30 185.616 30.192C185.616 30.384 185.608 30.584 185.592 30.792H176.544C176.608 31.72 176.928 32.448 177.504 32.976C178.096 33.504 178.808 33.768 179.64 33.768C180.264 33.768 180.784 33.632 181.2 33.36C181.632 33.072 181.952 32.704 182.16 32.256H185.28C185.056 33.008 184.68 33.696 184.152 34.32C183.64 34.928 183 35.408 182.232 35.76C181.48 36.112 180.624 36.288 179.664 36.288ZM179.688 26.304C178.936 26.304 178.272 26.52 177.696 26.952C177.12 27.368 176.752 28.008 176.592 28.872H182.52C182.472 28.088 182.184 27.464 181.656 27C181.128 26.536 180.472 26.304 179.688 26.304Z" fill="#00856F"/>
<path d="M28.9557 24.363C28.8207 24.3632 28.6888 24.3234 28.5765 24.2485C28.4642 24.1737 28.3766 24.0673 28.3249 23.9427C28.2731 23.8181 28.2594 23.6809 28.2856 23.5486C28.3118 23.4162 28.3767 23.2946 28.4721 23.1991C28.5674 23.1036 28.6889 23.0386 28.8212 23.0122C28.9536 22.9858 29.0907 22.9992 29.2154 23.0508C29.3401 23.1024 29.4467 23.1898 29.5217 23.302C29.5966 23.4142 29.6367 23.5461 29.6367 23.681C29.6364 23.8616 29.5646 24.0348 29.437 24.1626C29.3093 24.2904 29.1363 24.3625 28.9557 24.363ZM36.1557 0L29.8407 3.519C29.6167 3.64305 29.3538 3.67702 29.1057 3.614C29.0637 3.605 24.6857 2.536 21.3297 4.759C19.2917 6.107 18.0037 8.418 17.5017 11.628C16.7567 16.374 16.5577 17.882 16.4617 18.607C16.3617 19.387 16.3527 19.421 16.0017 21.184C15.2157 25.146 15.9557 26.784 16.4657 27.403C16.6651 27.6448 16.9185 27.8364 17.2053 27.9627C17.4922 28.0889 17.8047 28.1462 18.1177 28.13C20.1277 28.13 21.9327 27.724 21.9327 22.823C21.9327 17.394 21.8197 11.552 21.8187 11.493C21.8136 11.2279 21.9139 10.9717 22.0977 10.7806C22.2815 10.5895 22.5336 10.4793 22.7987 10.474H22.8187C23.0805 10.4739 23.3318 10.5766 23.5188 10.7598C23.7058 10.943 23.8134 11.1923 23.8187 11.454C23.8187 11.507 23.9097 16.168 23.9287 21.039L27.2447 21.992C27.9997 16.885 31.3817 14.063 33.9377 11.93C35.0164 11.14 35.9709 10.1932 36.7697 9.121C38.7707 5.813 38.5647 2.747 36.1527 0H36.1557ZM34.4087 47.551C34.2379 47.5331 34.0745 47.4716 33.9344 47.3723C33.7943 47.273 33.6821 47.1392 33.6087 46.984C33.3467 46.43 27.2087 33.314 27.0917 24.349C27.0917 24.24 27.0997 24.139 27.0997 24.031L23.9257 23.119C23.8547 27.959 22.0577 30.13 18.1177 30.13C17.9787 30.13 17.8517 30.102 17.7177 30.09C17.4794 31.1884 17.0528 32.2372 16.4567 33.19C16.2427 33.49 12.4027 38.79 10.7057 40.59C9.73997 41.6637 9.08336 42.9791 8.80567 44.3962C8.52799 45.8133 8.63961 47.2792 9.12866 48.638C9.18867 48.776 9.25667 48.916 9.33467 49.058H5.96467C5.1994 49.0915 4.44187 48.893 3.79141 48.4885C3.14096 48.0839 2.62795 47.4922 2.31967 46.791C1.57167 45.034 2.17466 42.891 3.93367 41.063C4.11759 40.8719 4.21808 40.6156 4.21302 40.3504C4.20795 40.0852 4.09775 39.8329 3.90666 39.649C3.71558 39.4651 3.45925 39.3646 3.19407 39.3696C2.9289 39.3747 2.67659 39.4849 2.49267 39.676C0.159666 42.104 -0.593335 45.056 0.478665 47.576C0.942353 48.6369 1.71218 49.5352 2.68954 50.1559C3.6669 50.7766 4.80729 51.0914 5.96467 51.06H26.7457C26.9126 50.1174 26.723 49.1465 26.2137 48.336C26.0294 48.1416 25.8037 47.9911 25.5534 47.8958C25.3031 47.8004 25.0346 47.7625 24.7677 47.785H19.8367C19.6132 47.7844 19.3964 47.709 19.2208 47.5708C19.0452 47.4325 18.921 47.2395 18.8679 47.0224C18.8149 46.8054 18.8361 46.5768 18.9281 46.3732C19.0201 46.1695 19.1777 46.0026 19.3757 45.899C20.0153 45.5647 20.5759 45.0972 21.0196 44.528C21.4632 43.9587 21.7797 43.3009 21.9477 42.599C22.2064 41.6401 22.1093 40.6199 21.6741 39.727C21.239 38.8342 20.4954 38.1291 19.5807 37.742C19.4587 37.6931 19.3476 37.6208 19.2537 37.529C19.1597 37.4372 19.0847 37.3278 19.0331 37.207C18.9814 37.0862 18.954 36.9565 18.9525 36.8251C18.951 36.6938 18.9753 36.5634 19.0242 36.4415C19.073 36.3196 19.1454 36.2085 19.2372 36.1145C19.329 36.0205 19.4384 35.9456 19.5592 35.8939C19.6799 35.8422 19.8097 35.8148 19.941 35.8133C20.0724 35.8118 20.2027 35.8361 20.3247 35.885C21.6661 36.4416 22.7649 37.4585 23.4235 38.7528C24.0821 40.0471 24.2573 41.534 23.9177 42.946C23.6912 43.9833 23.2312 44.9552 22.5727 45.788H24.7727C25.3288 45.764 25.8834 45.8637 26.3963 46.08C26.9092 46.2964 27.3677 46.6239 27.7387 47.039C28.5877 48.1971 28.9502 49.6413 28.7487 51.063H36.5647C36.7382 50.1791 36.6067 49.2625 36.1917 48.463C35.9831 48.1857 35.7142 47.9595 35.4053 47.8015C35.0964 47.6434 34.7556 47.5578 34.4087 47.551Z" fill="#222222"/>
</svg>
