<svg width="48" height="48" viewBox="0 0 48 48" fill="none" xmlns="http://www.w3.org/2000/svg">
<path d="M41 17H7C6.46957 17 5.96086 17.2107 5.58579 17.5858C5.21071 17.9609 5 18.4696 5 19V39C5 39.5304 5.21071 40.0391 5.58579 40.4142C5.96086 40.7893 6.46957 41 7 41H41C41.5304 41 42.0391 40.7893 42.4142 40.4142C42.7893 40.0391 43 39.5304 43 39V19C43 18.4696 42.7893 17.9609 42.4142 17.5858C42.0391 17.2107 41.5304 17 41 17ZM34 7H14V17H34V7Z" stroke="black" stroke-width="4" stroke-linejoin="round"/>
<path d="M19 29H29M24 24V34" stroke="black" stroke-width="4" stroke-linecap="round"/>
</svg>
